<svg id="Calque_1" data-name="Calque 1" xmlns="http://www.w3.org/2000/svg" xmlns:xlink="http://www.w3.org/1999/xlink" viewBox="0 0 1366 767.98">
  <defs>
    <style>
      .cls-1 {
        fill: none;
      }

      .cls-2 {
        fill: url(#Nouvelle_nuance_de_motif_1);
      }
    </style>
    <pattern id="Nouvelle_nuance_de_motif_1" data-name="Nouvelle nuance de motif 1" width="400" height="370" patternTransform="translate(92.69 -27.83) rotate(45) scale(0.11)" patternUnits="userSpaceOnUse" viewBox="0 0 400 370">
      <rect class="cls-1" width="400" height="370"/>
      <g>
        <path d="M309.24,262.09a31.46,31.46,0,0,1,3.12,8.12,37.19,37.19,0,0,1,.78,8.62,77.39,77.39,0,0,0,.09,8.11,13.77,13.77,0,0,0,2.43,6.8l.06.08.07.14a56.87,56.87,0,0,1,3.69,8.58,37.52,37.52,0,0,1,1.8,9.32,40,40,0,0,1-.63,9.48c-.56,3.09-1.41,6-2.22,8.92s-1.59,5.69-2.11,8.51a45.54,45.54,0,0,0-.81,8.45,43.63,43.63,0,0,0,.88,8.43,62.09,62.09,0,0,0,2.4,8.25l0,.12,0,.07a80.31,80.31,0,0,1,2.67,13.71,40.25,40.25,0,0,1,0,7.2,41.94,41.94,0,0,1-1.43,7.05c-.67,2.24-1.41,4.36-2.07,6.47-.31,1.06-.65,2.11-.91,3.16l-.41,1.58-.34,1.6c-.25,1.05-.41,2.14-.59,3.22s-.3,2.17-.44,3.26a59.23,59.23,0,0,0-.49,6.5,60.7,60.7,0,0,0,1.49,13,91,91,0,0,1,2.25,13.58c0,1.17.1,2.34.07,3.51l-.19,3.49-.48,3.45-.13.86-.18.85-.38,1.69c-.43,2.27-1.2,4.43-1.84,6.63s-1.61,4.27-2.41,6.41a1,1,0,0,1-1.81-.61l0-.07c.65-2.14,1.37-4.26,2-6.41s1.16-4.29,1.47-6.48l.28-1.63.14-.81.08-.82.3-3.27,0-3.27c0-1.09-.15-2.17-.22-3.25a89.44,89.44,0,0,0-2.66-13,55.34,55.34,0,0,1-1.62-20.8c.12-1.15.22-2.31.41-3.46s.31-2.29.56-3.44l.34-1.71.41-1.71c.26-1.14.6-2.24.9-3.36.66-2.2,1.36-4.36,1.95-6.44a38.2,38.2,0,0,0,1.2-6.21,35.06,35.06,0,0,0-.08-6.31,77.62,77.62,0,0,0-2.6-12.81l.07.19a66.94,66.94,0,0,1-2.59-9,46.45,46.45,0,0,1,0-18.79c.6-3.06,1.47-6,2.31-8.89,1.71-5.74,3.2-11.26,2.95-16.86s-2.08-11.08-4.61-16.29l.14.23a17.18,17.18,0,0,1-2.85-8.77,76,76,0,0,1,.24-8.51,34.89,34.89,0,0,0-.38-7.94,29.76,29.76,0,0,0-2.43-7.5l0,0a1.31,1.31,0,0,1,2.33-1.18Z"/>
        <path d="M286.31,271.84a55.62,55.62,0,0,1,2,11.36,80.68,80.68,0,0,1,.1,11.53A89.87,89.87,0,0,1,287,306.16,62.36,62.36,0,0,1,284,317.44l0-.13c-1.86,5.73-3,11.69-2.33,17.45a55.16,55.16,0,0,0,2.08,8.74c.36,1.56.77,3.11,1.06,4.69l.38,2.38.18,1.18.1,1.2a75.16,75.16,0,0,1-.88,19c-1,6.21-2.4,12.25-3.43,18.26-.55,3-.91,6-1.18,9s-.22,6.05-.18,9.09a94.76,94.76,0,0,0,2,18.08c1.25,6,2.9,12.05,3.66,18.27a132.83,132.83,0,0,1,.93,18.68.79.79,0,0,1-.81.77.78.78,0,0,1-.77-.74h0A152.39,152.39,0,0,0,282.85,445c-.58-3-1.19-6-2-9s-1.59-5.95-2.31-9A89.18,89.18,0,0,1,276,408.38c-.09-3.14-.13-6.25,0-9.46a93.87,93.87,0,0,1,1.14-9.4c1-6.19,2.4-12.21,3.37-18.22a71.61,71.61,0,0,0,.91-18l-.08-1.12-.16-1.1-.32-2.21c-.25-1.47-.63-2.91-.94-4.37a59.41,59.41,0,0,1-2.08-9.32,34.53,34.53,0,0,1,.4-9.75,59.61,59.61,0,0,1,2.49-9.24l0-.06,0-.06A58.48,58.48,0,0,0,284,305.55a107.76,107.76,0,0,0,1.7-11,78.54,78.54,0,0,0,.34-11.16,59.4,59.4,0,0,0-1.44-11h0a.9.9,0,0,1,1.74-.46Z"/>
        <path d="M374.09,271.8a27.91,27.91,0,0,1,2.78,7.23,33.44,33.44,0,0,1,.7,7.68,66.3,66.3,0,0,0,.08,7.23,12.07,12.07,0,0,0,2.16,6.05l.05.08.07.12a50.36,50.36,0,0,1,3.28,7.64,32.7,32.7,0,0,1,1.6,8.31,34.94,34.94,0,0,1-.56,8.44c-.49,2.76-1.26,5.38-2,7.94s-1.42,5.08-1.88,7.58a40,40,0,0,0-.72,7.53,38,38,0,0,0,.78,7.51,56.61,56.61,0,0,0,2.13,7.36l0,.1,0,.07a71,71,0,0,1,2.38,12.2,36.21,36.21,0,0,1,0,6.42,38,38,0,0,1-1.27,6.28c-.61,2-1.26,3.89-1.85,5.77-.28.94-.58,1.87-.81,2.81l-.37,1.41-.3,1.42c-.22.94-.37,1.91-.52,2.87s-.27,1.94-.4,2.9a51.43,51.43,0,0,0-.43,5.8,53.29,53.29,0,0,0,1.33,11.57,82.34,82.34,0,0,1,2,12.1c0,1,.09,2.08.06,3.12l-.17,3.11-.43,3.08-.11.76-.17.76-.33,1.5c-.39,2-1.07,3.95-1.64,5.91s-1.44,3.81-2.14,5.71a.86.86,0,0,1-1.62-.55l0-.06c.57-1.91,1.22-3.79,1.74-5.71s1-3.82,1.3-5.77l.25-1.45.13-.73.07-.73.26-2.91,0-2.91c0-1-.13-1.94-.19-2.9a79.24,79.24,0,0,0-2.37-11.59,55.62,55.62,0,0,1-1.74-12.29,53.82,53.82,0,0,1,.3-6.23c.11-1,.19-2.07.36-3.08s.28-2.05.5-3.07l.3-1.53.37-1.51c.23-1,.53-2,.8-3,.58-2,1.21-3.88,1.73-5.74a34,34,0,0,0,1.08-5.53,32,32,0,0,0-.07-5.62,70.2,70.2,0,0,0-2.32-11.41l.06.17a60.15,60.15,0,0,1-2.31-8,42.7,42.7,0,0,1-.86-8.38,41.67,41.67,0,0,1,.85-8.36c.54-2.73,1.3-5.36,2-7.92,1.53-5.11,2.86-10,2.63-15a36.74,36.74,0,0,0-4.1-14.51l.12.2a15.3,15.3,0,0,1-2.54-7.81,69.44,69.44,0,0,1,.21-7.59,30.24,30.24,0,0,0-.33-7.07,26.77,26.77,0,0,0-2.17-6.68v0a1.16,1.16,0,0,1,2.07-1.05Z"/>
        <path d="M349,286.78a49.08,49.08,0,0,1,1.8,10,71.22,71.22,0,0,1,.08,10.12,79.26,79.26,0,0,1-1.24,10.05,53.72,53.72,0,0,1-2.69,9.9l.05-.11c-1.64,5-2.69,10.27-2.05,15.33a49.17,49.17,0,0,0,1.82,7.68c.32,1.37.68,2.73.94,4.11l.32,2.09.16,1.05.09,1a65.8,65.8,0,0,1-.77,16.67c-.84,5.45-2.11,10.76-3,16-.48,2.64-.8,5.27-1,7.9s-.19,5.32-.16,8A84,84,0,0,0,345,422.51c1.1,5.23,2.55,10.58,3.21,16.05a114.14,114.14,0,0,1,.83,16.4.71.71,0,0,1-.71.69.7.7,0,0,1-.68-.66h0A132.38,132.38,0,0,0,346,438.91c-.51-2.63-1-5.25-1.72-7.86s-1.39-5.23-2-7.91A79,79,0,0,1,340,406.72c-.08-2.76-.12-5.49,0-8.31a83.17,83.17,0,0,1,1-8.26c.9-5.44,2.11-10.72,3-16a63.09,63.09,0,0,0,.8-15.79l-.08-1-.13-1-.28-1.94c-.23-1.29-.55-2.56-.83-3.84a51.94,51.94,0,0,1-1.82-8.19,29.88,29.88,0,0,1,.35-8.56,52.35,52.35,0,0,1,2.18-8.11l0-.06,0-.05a52,52,0,0,0,2.73-9.26,95.81,95.81,0,0,0,1.49-9.7,69.78,69.78,0,0,0,.3-9.8,51.86,51.86,0,0,0-1.27-9.7h0a.79.79,0,0,1,1.53-.4Z"/>
        <path d="M243.74,273.92a27,27,0,0,1,2.69,7,32.89,32.89,0,0,1,.67,7.43,64.39,64.39,0,0,0,.08,7,11.73,11.73,0,0,0,2.09,5.86l0,.08.06.12a48.54,48.54,0,0,1,3.18,7.39,32,32,0,0,1,1.55,8,34.26,34.26,0,0,1-.54,8.17c-.48,2.67-1.22,5.21-1.91,7.69s-1.37,4.91-1.82,7.33a39.13,39.13,0,0,0-.7,7.29,37.23,37.23,0,0,0,.76,7.27A54.94,54.94,0,0,0,252,361.7l0,.1,0,.06a69.61,69.61,0,0,1,2.3,11.82,33.78,33.78,0,0,1,0,6.2,35.59,35.59,0,0,1-1.23,6.08c-.58,1.94-1.22,3.77-1.79,5.59-.27.9-.56,1.81-.78,2.72l-.36,1.36-.29,1.38c-.22.91-.35,1.84-.51,2.78s-.26,1.87-.38,2.8a50.6,50.6,0,0,0-.42,5.61,51.68,51.68,0,0,0,1.29,11.2,79.7,79.7,0,0,1,1.94,11.71c0,1,.08,2,.06,3l-.17,3-.41,3-.11.74-.16.73-.33,1.46a59,59,0,0,1-1.59,5.72c-.63,1.86-1.38,3.68-2.07,5.52a.82.82,0,0,1-1.56-.53l0-.06c.55-1.84,1.18-3.67,1.68-5.52s1-3.7,1.26-5.59l.24-1.4.13-.71.06-.7.26-2.82,0-2.82c0-.94-.13-1.87-.19-2.8a77.86,77.86,0,0,0-2.29-11.22,54,54,0,0,1-1.69-11.9,52.59,52.59,0,0,1,.29-6c.11-1,.19-2,.35-3s.27-2,.49-3l.29-1.49.35-1.46c.23-1,.52-1.94.78-2.9.56-1.9,1.17-3.76,1.68-5.56a33.89,33.89,0,0,0,1-5.35,30,30,0,0,0-.07-5.44,66.52,66.52,0,0,0-2.24-11l0,.16a58.16,58.16,0,0,1-2.23-7.74,41.56,41.56,0,0,1-.83-8.11,39.65,39.65,0,0,1,.82-8.09c.52-2.65,1.26-5.19,2-7.67,1.48-4.95,2.77-9.7,2.55-14.53a35.65,35.65,0,0,0-4-14l.11.2a14.93,14.93,0,0,1-2.46-7.56,69.85,69.85,0,0,1,.21-7.34,29.42,29.42,0,0,0-.32-6.85,26,26,0,0,0-2.09-6.47l0,0a1.13,1.13,0,0,1,2-1Z"/>
        <path d="M224.43,292a45.3,45.3,0,0,1,1.66,9.22,66.18,66.18,0,0,1,.08,9.34,72.45,72.45,0,0,1-1.15,9.27,49.21,49.21,0,0,1-2.48,9.14l0-.1c-1.51,4.65-2.48,9.48-1.89,14.15a45.49,45.49,0,0,0,1.68,7.08c.29,1.27.63,2.53.87,3.81l.3,1.92.15,1,.08,1a61.37,61.37,0,0,1-.72,15.4c-.77,5-1.94,9.93-2.78,14.8-.44,2.43-.74,4.87-1,7.29s-.18,4.91-.15,7.37a76.86,76.86,0,0,0,1.6,14.66c1,4.83,2.35,9.77,3,14.82a106.66,106.66,0,0,1,.76,15.14.64.64,0,0,1-1.28,0h0a124.19,124.19,0,0,0-1.58-14.84c-.48-2.43-1-4.85-1.59-7.26s-1.29-4.83-1.87-7.3a71.76,71.76,0,0,1-2.06-15.15c-.08-2.55-.11-5.07,0-7.67a76.78,76.78,0,0,1,.92-7.63c.84-5,1.95-9.89,2.74-14.77a58.17,58.17,0,0,0,.73-14.58l-.06-.9-.13-.9-.26-1.79c-.21-1.19-.51-2.36-.76-3.54a47.8,47.8,0,0,1-1.69-7.56,27.83,27.83,0,0,1,.33-7.9,47,47,0,0,1,2-7.49v-.05l0-.05a47.14,47.14,0,0,0,2.51-8.54,87.31,87.31,0,0,0,1.38-9,63.57,63.57,0,0,0,.28-9.05,48,48,0,0,0-1.17-8.94h0a.73.73,0,0,1,1.41-.38Z"/>
      </g>
      <g>
        <path d="M109.24,262.09a31.46,31.46,0,0,1,3.12,8.12,37.19,37.19,0,0,1,.78,8.62,77.39,77.39,0,0,0,.09,8.11,13.77,13.77,0,0,0,2.43,6.8l.06.08.07.14a56.87,56.87,0,0,1,3.69,8.58,37.52,37.52,0,0,1,1.8,9.32,40,40,0,0,1-.63,9.48c-.56,3.09-1.41,6-2.22,8.92s-1.59,5.69-2.11,8.51a45.54,45.54,0,0,0-.81,8.45,43.63,43.63,0,0,0,.88,8.43,62.09,62.09,0,0,0,2.4,8.25l0,.12,0,.07a80.31,80.31,0,0,1,2.67,13.71,40.25,40.25,0,0,1,0,7.2,41.94,41.94,0,0,1-1.43,7.05c-.67,2.24-1.41,4.36-2.07,6.47-.31,1.06-.65,2.11-.91,3.16l-.41,1.58-.34,1.6c-.25,1.05-.41,2.14-.59,3.22s-.3,2.17-.44,3.26a59.23,59.23,0,0,0-.49,6.5,60.7,60.7,0,0,0,1.49,13,91,91,0,0,1,2.25,13.58c0,1.17.1,2.34.07,3.51l-.19,3.49-.48,3.45-.13.86-.18.85-.38,1.69c-.43,2.27-1.2,4.43-1.84,6.63s-1.61,4.27-2.41,6.41a1,1,0,0,1-1.81-.61l0-.07c.65-2.14,1.37-4.26,2-6.41s1.16-4.29,1.47-6.48l.28-1.63.14-.81.08-.82.3-3.27,0-3.27c0-1.09-.15-2.17-.22-3.25a89.44,89.44,0,0,0-2.66-13,55.34,55.34,0,0,1-1.62-20.8c.12-1.15.22-2.31.41-3.46s.31-2.29.56-3.44l.34-1.71.41-1.71c.26-1.14.6-2.24.9-3.36.66-2.2,1.36-4.36,2-6.44a38.2,38.2,0,0,0,1.2-6.21,35.06,35.06,0,0,0-.08-6.31,77.62,77.62,0,0,0-2.6-12.81l.07.19a66.94,66.94,0,0,1-2.59-9,46.45,46.45,0,0,1,0-18.79c.6-3.06,1.47-6,2.31-8.89,1.71-5.74,3.2-11.26,2.95-16.86s-2.08-11.08-4.61-16.29l.14.23a17.18,17.18,0,0,1-2.85-8.77,76,76,0,0,1,.24-8.51,34.89,34.89,0,0,0-.38-7.94,29.76,29.76,0,0,0-2.43-7.5l0,0a1.31,1.31,0,0,1,2.33-1.18Z"/>
        <path d="M86.31,271.84a55.62,55.62,0,0,1,2,11.36,80.68,80.68,0,0,1,.1,11.53A89.87,89.87,0,0,1,87,306.16,62.36,62.36,0,0,1,84,317.44l0-.13C82.16,323,81,329,81.69,334.76a55.16,55.16,0,0,0,2.08,8.74c.36,1.56.77,3.11,1.06,4.69l.38,2.38.18,1.18.1,1.2a75.16,75.16,0,0,1-.88,19c-1,6.21-2.4,12.25-3.43,18.26-.55,3-.91,6-1.18,9s-.22,6.05-.18,9.09a94.76,94.76,0,0,0,2,18.08c1.25,6,2.9,12.05,3.66,18.27a132.83,132.83,0,0,1,.93,18.68.79.79,0,0,1-.81.77.78.78,0,0,1-.77-.74h0a152.39,152.39,0,0,0-2-18.29c-.58-3-1.19-6-2-9s-1.59-5.95-2.31-9A89.18,89.18,0,0,1,76,408.38c-.09-3.14-.13-6.25,0-9.46a93.87,93.87,0,0,1,1.14-9.4c1-6.19,2.4-12.21,3.37-18.22a71.61,71.61,0,0,0,.91-18l-.08-1.12-.16-1.1-.32-2.21c-.25-1.47-.63-2.91-.94-4.37a59.41,59.41,0,0,1-2.08-9.32,34.53,34.53,0,0,1,.4-9.75,59.61,59.61,0,0,1,2.49-9.24l0-.06,0-.06A58.48,58.48,0,0,0,84,305.55a107.76,107.76,0,0,0,1.7-11A78.54,78.54,0,0,0,86,283.35a59.4,59.4,0,0,0-1.44-11h0a.9.9,0,0,1,1.74-.46Z"/>
        <path d="M174.09,271.8a27.91,27.91,0,0,1,2.78,7.23,33.44,33.44,0,0,1,.7,7.68,66.3,66.3,0,0,0,.08,7.23,12.07,12.07,0,0,0,2.16,6.05l.05.08.07.12a50.36,50.36,0,0,1,3.28,7.64,32.7,32.7,0,0,1,1.6,8.31,34.94,34.94,0,0,1-.56,8.44c-.49,2.76-1.26,5.38-2,7.94s-1.42,5.08-1.88,7.58a40,40,0,0,0-.72,7.53,38,38,0,0,0,.78,7.51,56.61,56.61,0,0,0,2.13,7.36l0,.1,0,.07a71,71,0,0,1,2.38,12.2,36.21,36.21,0,0,1,0,6.42,38,38,0,0,1-1.27,6.28c-.61,2-1.26,3.89-1.85,5.77-.28.94-.58,1.87-.81,2.81l-.37,1.41-.3,1.42c-.22.94-.37,1.91-.52,2.87s-.27,1.94-.4,2.9a51.43,51.43,0,0,0-.43,5.8,53.29,53.29,0,0,0,1.33,11.57,82.34,82.34,0,0,1,2,12.1c0,1,.09,2.08.06,3.12l-.17,3.11-.43,3.08-.11.76-.17.76-.33,1.5c-.39,2-1.07,3.95-1.64,5.91s-1.44,3.81-2.14,5.71a.86.86,0,0,1-1.62-.55l0-.06c.57-1.91,1.22-3.79,1.74-5.71s1-3.82,1.3-5.77l.25-1.45.13-.73.07-.73.26-2.91,0-2.91c0-1-.13-1.94-.19-2.9a79.24,79.24,0,0,0-2.37-11.59,55.62,55.62,0,0,1-1.74-12.29,53.82,53.82,0,0,1,.3-6.23c.11-1,.19-2.07.36-3.08s.28-2.05.5-3.07l.3-1.53.37-1.51c.23-1,.53-2,.8-3,.58-2,1.21-3.88,1.73-5.74a34,34,0,0,0,1.08-5.53,32,32,0,0,0-.07-5.62,70.2,70.2,0,0,0-2.32-11.41l.06.17a60.15,60.15,0,0,1-2.31-8,42.7,42.7,0,0,1-.86-8.38,41.67,41.67,0,0,1,.85-8.36c.54-2.73,1.3-5.36,2.05-7.92,1.53-5.11,2.86-10,2.63-15a36.74,36.74,0,0,0-4.1-14.51l.12.2a15.3,15.3,0,0,1-2.54-7.81,69.44,69.44,0,0,1,.21-7.59,30.24,30.24,0,0,0-.33-7.07,26.77,26.77,0,0,0-2.17-6.68v0a1.16,1.16,0,0,1,2.07-1.05Z"/>
        <path d="M149,286.78a49.08,49.08,0,0,1,1.8,10,71.22,71.22,0,0,1,.08,10.12,79.26,79.26,0,0,1-1.24,10.05,53.72,53.72,0,0,1-2.69,9.9l0-.11c-1.64,5-2.69,10.27-2,15.33a49.17,49.17,0,0,0,1.82,7.68c.32,1.37.68,2.73.94,4.11l.32,2.09.16,1.05.09,1a65.8,65.8,0,0,1-.77,16.67c-.84,5.45-2.11,10.76-3,16-.48,2.64-.8,5.27-1,7.9s-.19,5.32-.16,8A84,84,0,0,0,145,422.51c1.1,5.23,2.55,10.58,3.21,16.05a114.14,114.14,0,0,1,.83,16.4.71.71,0,0,1-.71.69.7.7,0,0,1-.68-.66h0A132.38,132.38,0,0,0,146,438.91c-.51-2.63-1-5.25-1.72-7.86s-1.39-5.23-2-7.91A79,79,0,0,1,140,406.72c-.08-2.76-.12-5.49,0-8.31a83.17,83.17,0,0,1,1-8.26c.9-5.44,2.11-10.72,3-16a63.09,63.09,0,0,0,.8-15.79l-.08-1-.13-1-.28-1.94c-.23-1.29-.55-2.56-.83-3.84a51.94,51.94,0,0,1-1.82-8.19,29.88,29.88,0,0,1,.35-8.56,52.35,52.35,0,0,1,2.18-8.11l0-.06,0-.05a52,52,0,0,0,2.73-9.26,95.81,95.81,0,0,0,1.49-9.7,69.78,69.78,0,0,0,.3-9.8,51.86,51.86,0,0,0-1.27-9.7h0a.79.79,0,0,1,1.53-.4Z"/>
        <path d="M43.74,273.92a27,27,0,0,1,2.69,7,32.89,32.89,0,0,1,.67,7.43,64.39,64.39,0,0,0,.08,7,11.73,11.73,0,0,0,2.09,5.86l0,.08.06.12a48.54,48.54,0,0,1,3.18,7.39,32,32,0,0,1,1.55,8,34.26,34.26,0,0,1-.54,8.17c-.48,2.67-1.22,5.21-1.91,7.69s-1.37,4.91-1.82,7.33a39.13,39.13,0,0,0-.7,7.29,37.23,37.23,0,0,0,.76,7.27A54.94,54.94,0,0,0,52,361.7l0,.1,0,.06a69.61,69.61,0,0,1,2.3,11.82,33.78,33.78,0,0,1,0,6.2A35.59,35.59,0,0,1,53.11,386c-.58,1.94-1.22,3.77-1.79,5.59-.27.9-.56,1.81-.78,2.72l-.36,1.36L49.89,397c-.22.91-.35,1.84-.51,2.78s-.26,1.87-.38,2.8a50.6,50.6,0,0,0-.42,5.61,51.68,51.68,0,0,0,1.29,11.2,79.7,79.7,0,0,1,1.94,11.71c0,1,.08,2,.06,3l-.17,3-.41,3-.11.74-.16.73-.33,1.46a59,59,0,0,1-1.59,5.72c-.63,1.86-1.38,3.68-2.07,5.52a.82.82,0,0,1-1.56-.53l0-.06c.55-1.84,1.18-3.67,1.68-5.52s1-3.7,1.26-5.59l.24-1.4.13-.71.06-.7.26-2.82,0-2.82c0-.94-.13-1.87-.19-2.8a77.86,77.86,0,0,0-2.29-11.22A54,54,0,0,1,45,408.22a52.59,52.59,0,0,1,.29-6c.11-1,.19-2,.35-3s.27-2,.49-3l.29-1.49.35-1.46c.23-1,.52-1.94.78-2.9.56-1.9,1.17-3.76,1.68-5.56a33.89,33.89,0,0,0,1-5.35,30,30,0,0,0-.07-5.44,66.52,66.52,0,0,0-2.24-11l0,.16a58.16,58.16,0,0,1-2.23-7.74,41.56,41.56,0,0,1-.83-8.11,39.65,39.65,0,0,1,.82-8.09c.52-2.65,1.26-5.19,2-7.67,1.48-4.95,2.77-9.7,2.55-14.53a35.65,35.65,0,0,0-4-14l.11.2A14.93,14.93,0,0,1,44,295.62a69.85,69.85,0,0,1,.21-7.34,29.42,29.42,0,0,0-.32-6.85A26,26,0,0,0,41.75,275l0,0a1.13,1.13,0,0,1,2-1Z"/>
        <path d="M24.43,292a45.3,45.3,0,0,1,1.66,9.22,66.18,66.18,0,0,1,.08,9.34A72.45,72.45,0,0,1,25,319.78a49.21,49.21,0,0,1-2.48,9.14l0-.1c-1.51,4.65-2.48,9.48-1.89,14.15a45.49,45.49,0,0,0,1.68,7.08c.29,1.27.63,2.53.87,3.81l.3,1.92.15,1,.08,1a61.37,61.37,0,0,1-.72,15.4c-.77,5-1.94,9.93-2.78,14.8-.44,2.43-.74,4.87-.95,7.29s-.18,4.91-.15,7.37a76.86,76.86,0,0,0,1.6,14.66c1,4.83,2.35,9.77,3,14.82a106.66,106.66,0,0,1,.76,15.14.64.64,0,0,1-1.28,0h0a124.19,124.19,0,0,0-1.58-14.84c-.48-2.43-1-4.85-1.59-7.26s-1.29-4.83-1.87-7.3a71.76,71.76,0,0,1-2.06-15.15c-.08-2.55-.11-5.07,0-7.67a76.78,76.78,0,0,1,.92-7.63c.84-5,2-9.89,2.74-14.77A58.17,58.17,0,0,0,20.53,358l-.06-.9-.13-.9-.26-1.79c-.21-1.19-.51-2.36-.76-3.54a47.8,47.8,0,0,1-1.69-7.56,27.83,27.83,0,0,1,.33-7.9,47,47,0,0,1,2-7.49v-.05l0-.05a47.14,47.14,0,0,0,2.51-8.54,87.31,87.31,0,0,0,1.38-9,63.57,63.57,0,0,0,.28-9.05A48,48,0,0,0,23,292.34h0a.73.73,0,0,1,1.41-.38Z"/>
      </g>
      <g>
        <path d="M386.31,86.84a55.62,55.62,0,0,1,2,11.36,80.68,80.68,0,0,1,.1,11.53A89.87,89.87,0,0,1,387,121.16,62.36,62.36,0,0,1,384,132.44l0-.13c-1.86,5.73-3,11.69-2.33,17.45a55.16,55.16,0,0,0,2.08,8.74c.36,1.56.77,3.11,1.06,4.69l.38,2.38.18,1.18.1,1.2a75.16,75.16,0,0,1-.88,19c-1,6.21-2.4,12.25-3.43,18.26-.55,3-.91,6-1.18,9s-.22,6.05-.18,9.09a94.76,94.76,0,0,0,2,18.08c1.25,6,2.9,12,3.66,18.27a132.83,132.83,0,0,1,.93,18.68.79.79,0,0,1-.81.77.78.78,0,0,1-.77-.74h0A152.39,152.39,0,0,0,382.85,260c-.58-3-1.19-6-2-9s-1.59-6-2.31-9A89.18,89.18,0,0,1,376,223.38c-.09-3.14-.13-6.25,0-9.46a93.87,93.87,0,0,1,1.14-9.4c1-6.19,2.4-12.21,3.37-18.22a71.61,71.61,0,0,0,.91-18l-.08-1.12-.16-1.1-.32-2.21c-.25-1.47-.63-2.91-.94-4.37a59.41,59.41,0,0,1-2.08-9.32,34.53,34.53,0,0,1,.4-9.75,59.61,59.61,0,0,1,2.49-9.24l0-.06,0-.06A58.48,58.48,0,0,0,384,120.55a107.76,107.76,0,0,0,1.7-11A78.54,78.54,0,0,0,386,98.35a59.4,59.4,0,0,0-1.44-11h0a.9.9,0,0,1,1.74-.46Z"/>
        <path d="M343.74,88.92a27,27,0,0,1,2.69,7,32.89,32.89,0,0,1,.67,7.43,64.39,64.39,0,0,0,.08,7,11.73,11.73,0,0,0,2.09,5.86l.05.08.06.12a48.54,48.54,0,0,1,3.18,7.39,32,32,0,0,1,1.55,8,34.26,34.26,0,0,1-.54,8.17c-.48,2.67-1.22,5.21-1.91,7.69s-1.37,4.91-1.82,7.33a39.13,39.13,0,0,0-.7,7.29,37.23,37.23,0,0,0,.76,7.27A54.94,54.94,0,0,0,352,176.7l0,.1,0,.06a69.61,69.61,0,0,1,2.3,11.82,33.78,33.78,0,0,1,0,6.2,35.59,35.59,0,0,1-1.23,6.08c-.58,1.94-1.22,3.77-1.79,5.59-.27.9-.56,1.81-.78,2.72l-.36,1.36-.29,1.38c-.22.91-.35,1.84-.51,2.78s-.26,1.87-.38,2.8a50.6,50.6,0,0,0-.42,5.61,51.68,51.68,0,0,0,1.29,11.2,79.7,79.7,0,0,1,1.94,11.71c0,1,.08,2,.06,3l-.17,3-.41,3-.11.74-.16.73-.33,1.46a59,59,0,0,1-1.59,5.72c-.63,1.86-1.38,3.68-2.07,5.52a.82.82,0,0,1-1.56-.53l0-.06c.55-1.84,1.18-3.67,1.68-5.52s1-3.7,1.26-5.59l.24-1.4.13-.71.06-.7.26-2.82,0-2.82c0-.94-.13-1.87-.19-2.8a77.86,77.86,0,0,0-2.29-11.22,54,54,0,0,1-1.69-11.9,52.59,52.59,0,0,1,.29-6c.11-1,.19-2,.35-3s.27-2,.49-3l.29-1.49.35-1.46c.23-1,.52-1.94.78-2.9.56-1.9,1.17-3.76,1.68-5.56a33.89,33.89,0,0,0,1-5.35,30,30,0,0,0-.07-5.44,66.52,66.52,0,0,0-2.24-11l.05.16a58.16,58.16,0,0,1-2.23-7.74,41.56,41.56,0,0,1-.83-8.11,39.65,39.65,0,0,1,.82-8.09c.52-2.65,1.26-5.19,2-7.67,1.48-4.95,2.77-9.7,2.55-14.53a35.65,35.65,0,0,0-4-14l.11.2a14.93,14.93,0,0,1-2.46-7.56,69.85,69.85,0,0,1,.21-7.34,29.42,29.42,0,0,0-.32-6.85A26,26,0,0,0,341.75,90l0,0a1.13,1.13,0,0,1,2-1Z"/>
        <path d="M324.43,107a45.3,45.3,0,0,1,1.66,9.22,66.18,66.18,0,0,1,.08,9.34,72.45,72.45,0,0,1-1.15,9.27,49.21,49.21,0,0,1-2.48,9.14l0-.1c-1.51,4.65-2.48,9.48-1.89,14.15a45.49,45.49,0,0,0,1.68,7.08c.29,1.27.63,2.53.87,3.81l.3,1.92.15,1,.08,1a61.37,61.37,0,0,1-.72,15.4c-.77,5-1.94,9.93-2.78,14.8-.44,2.43-.74,4.87-.95,7.29s-.18,4.91-.15,7.37a76.86,76.86,0,0,0,1.6,14.66c1,4.83,2.35,9.77,3,14.82a106.66,106.66,0,0,1,.76,15.14.64.64,0,0,1-1.28,0h0a124.19,124.19,0,0,0-1.58-14.84c-.48-2.43-1-4.85-1.59-7.26s-1.29-4.83-1.87-7.3a71.76,71.76,0,0,1-2.06-15.15c-.08-2.55-.11-5.07,0-7.67a76.78,76.78,0,0,1,.92-7.63c.84-5,1.95-9.89,2.74-14.77a58.17,58.17,0,0,0,.73-14.58l-.06-.9-.13-.9-.26-1.79c-.21-1.19-.51-2.36-.76-3.54a47.8,47.8,0,0,1-1.69-7.56,27.83,27.83,0,0,1,.33-7.9,47,47,0,0,1,2-7.49v-.05l0,0a47.14,47.14,0,0,0,2.51-8.54,87.31,87.31,0,0,0,1.38-9,63.57,63.57,0,0,0,.28-9,48,48,0,0,0-1.17-8.94h0a.73.73,0,0,1,1.41-.38Z"/>
      </g>
      <g>
        <path d="M209.24,77.09a31.46,31.46,0,0,1,3.12,8.12,37.19,37.19,0,0,1,.78,8.62,77.39,77.39,0,0,0,.09,8.11,13.77,13.77,0,0,0,2.43,6.8l.06.08.07.14a56.87,56.87,0,0,1,3.69,8.58,37.52,37.52,0,0,1,1.8,9.32,40,40,0,0,1-.63,9.48c-.56,3.09-1.41,6-2.22,8.92s-1.59,5.69-2.11,8.51a45.54,45.54,0,0,0-.81,8.45,43.63,43.63,0,0,0,.88,8.43,62.09,62.09,0,0,0,2.4,8.25l0,.12,0,.07a80.31,80.31,0,0,1,2.67,13.71,40.25,40.25,0,0,1,0,7.2,41.94,41.94,0,0,1-1.43,7.05c-.67,2.24-1.41,4.36-2.07,6.47-.31,1.06-.65,2.11-.91,3.16l-.41,1.58-.34,1.6c-.25,1-.41,2.14-.59,3.22s-.3,2.17-.44,3.26a59.23,59.23,0,0,0-.49,6.5,60.7,60.7,0,0,0,1.49,13,91,91,0,0,1,2.25,13.58c0,1.17.1,2.34.07,3.51l-.19,3.49-.48,3.45-.13.86-.18.85-.38,1.69c-.43,2.27-1.2,4.43-1.84,6.63s-1.61,4.27-2.41,6.41a1,1,0,0,1-1.81-.61l0-.07c.65-2.14,1.37-4.26,1.95-6.41s1.16-4.29,1.47-6.48l.28-1.63.14-.81.08-.82.3-3.27,0-3.27c0-1.09-.15-2.17-.22-3.25a89.44,89.44,0,0,0-2.66-13,55.34,55.34,0,0,1-1.62-20.8c.12-1.15.22-2.31.41-3.46s.31-2.29.56-3.44l.34-1.71.41-1.71c.26-1.14.6-2.24.9-3.36.66-2.2,1.36-4.36,2-6.44a38.2,38.2,0,0,0,1.2-6.21,35.06,35.06,0,0,0-.08-6.31,77.62,77.62,0,0,0-2.6-12.81l.07.19a66.94,66.94,0,0,1-2.59-9,46.45,46.45,0,0,1,0-18.79c.6-3.06,1.47-6,2.31-8.89,1.71-5.74,3.2-11.26,2.95-16.86s-2.08-11.08-4.61-16.29l.14.23a17.18,17.18,0,0,1-2.85-8.77,76,76,0,0,1,.24-8.51,34.89,34.89,0,0,0-.38-7.94,29.76,29.76,0,0,0-2.43-7.5l0,0a1.31,1.31,0,0,1,2.33-1.18Z"/>
        <path d="M186.31,86.84a55.62,55.62,0,0,1,2,11.36,80.68,80.68,0,0,1,.1,11.53A89.87,89.87,0,0,1,187,121.16,62.36,62.36,0,0,1,184,132.44l0-.13C182.16,138,181,144,181.69,149.76a55.16,55.16,0,0,0,2.08,8.74c.36,1.56.77,3.11,1.06,4.69l.38,2.38.18,1.18.1,1.2a75.16,75.16,0,0,1-.88,19c-1,6.21-2.4,12.25-3.43,18.26-.55,3-.91,6-1.18,9s-.22,6.05-.18,9.09a94.76,94.76,0,0,0,2,18.08c1.25,6,2.9,12,3.66,18.27a132.83,132.83,0,0,1,.93,18.68.79.79,0,0,1-.81.77.78.78,0,0,1-.77-.74h0a152.39,152.39,0,0,0-2-18.29c-.58-3-1.19-6-2-9s-1.59-6-2.31-9A89.18,89.18,0,0,1,176,223.38c-.09-3.14-.13-6.25,0-9.46a93.87,93.87,0,0,1,1.14-9.4c1-6.19,2.4-12.21,3.37-18.22a71.61,71.61,0,0,0,.91-18l-.08-1.12-.16-1.1-.32-2.21c-.25-1.47-.63-2.91-.94-4.37a59.41,59.41,0,0,1-2.08-9.32,34.53,34.53,0,0,1,.4-9.75,59.61,59.61,0,0,1,2.49-9.24l0-.06,0-.06A58.48,58.48,0,0,0,184,120.55a107.76,107.76,0,0,0,1.7-11A78.54,78.54,0,0,0,186,98.35a59.4,59.4,0,0,0-1.44-11h0a.9.9,0,0,1,1.74-.46Z"/>
        <path d="M274.09,86.8A27.91,27.91,0,0,1,276.87,94a33.44,33.44,0,0,1,.7,7.68,66.3,66.3,0,0,0,.08,7.23,12.07,12.07,0,0,0,2.16,6l.05.08.07.12a50.36,50.36,0,0,1,3.28,7.64,32.7,32.7,0,0,1,1.6,8.31,34.94,34.94,0,0,1-.56,8.44c-.49,2.76-1.26,5.38-2,7.94s-1.42,5.08-1.88,7.58a40,40,0,0,0-.72,7.53,38,38,0,0,0,.78,7.51,56.61,56.61,0,0,0,2.13,7.36l0,.1,0,.07a71,71,0,0,1,2.38,12.2,36.21,36.21,0,0,1,0,6.42,38,38,0,0,1-1.27,6.28c-.61,2-1.26,3.89-1.85,5.77-.28.94-.58,1.87-.81,2.81l-.37,1.41-.3,1.42c-.22.94-.37,1.91-.52,2.87s-.27,1.94-.4,2.9a51.43,51.43,0,0,0-.43,5.8,53.29,53.29,0,0,0,1.33,11.57,82.34,82.34,0,0,1,2,12.1c0,1,.09,2.08.06,3.12l-.17,3.11-.43,3.08-.11.76-.17.76-.33,1.5c-.39,2-1.07,3.95-1.64,5.91s-1.44,3.81-2.14,5.71a.86.86,0,0,1-1.62-.55l0-.06c.57-1.91,1.22-3.79,1.74-5.71s1-3.82,1.3-5.77l.25-1.45.13-.73.07-.73.26-2.91,0-2.91c0-1-.13-1.94-.19-2.9a79.24,79.24,0,0,0-2.37-11.59,55.62,55.62,0,0,1-1.74-12.29,53.82,53.82,0,0,1,.3-6.23c.11-1,.19-2.07.36-3.08s.28-2,.5-3.07l.3-1.53.37-1.51c.23-1,.53-2,.8-3,.58-2,1.21-3.88,1.73-5.74a34,34,0,0,0,1.08-5.53,32,32,0,0,0-.07-5.62,70.2,70.2,0,0,0-2.32-11.41l.06.17a60.15,60.15,0,0,1-2.31-8,42.7,42.7,0,0,1-.86-8.38,41.67,41.67,0,0,1,.85-8.36c.54-2.73,1.3-5.36,2-7.92,1.53-5.11,2.86-10,2.63-15a36.74,36.74,0,0,0-4.1-14.51l.12.2a15.3,15.3,0,0,1-2.54-7.81,69.44,69.44,0,0,1,.21-7.59,30.24,30.24,0,0,0-.33-7.07A26.77,26.77,0,0,0,272,87.88v0a1.16,1.16,0,0,1,2.07-1Z"/>
        <path d="M249,101.78a49.08,49.08,0,0,1,1.8,10,71.22,71.22,0,0,1,.08,10.12,79.26,79.26,0,0,1-1.24,10.05,53.72,53.72,0,0,1-2.69,9.9l0-.11c-1.64,5-2.69,10.27-2,15.33a49.17,49.17,0,0,0,1.82,7.68c.32,1.37.68,2.73.94,4.11l.32,2.09.16,1,.09,1.05a65.8,65.8,0,0,1-.77,16.67c-.84,5.45-2.11,10.76-3,16-.48,2.64-.8,5.27-1,7.9s-.19,5.32-.16,8A84,84,0,0,0,245,237.51c1.1,5.23,2.55,10.58,3.21,16.05a114.14,114.14,0,0,1,.83,16.4.71.71,0,0,1-.71.69.7.7,0,0,1-.68-.66h0A132.38,132.38,0,0,0,246,253.91c-.51-2.63-1-5.25-1.72-7.86s-1.39-5.23-2-7.91A79,79,0,0,1,240,221.72c-.08-2.76-.12-5.49,0-8.31a83.17,83.17,0,0,1,1-8.26c.9-5.44,2.11-10.72,3-16a63.09,63.09,0,0,0,.8-15.79l-.08-1-.13-1-.28-1.94c-.23-1.29-.55-2.56-.83-3.84a51.94,51.94,0,0,1-1.82-8.19,29.88,29.88,0,0,1,.35-8.56,52.35,52.35,0,0,1,2.18-8.11l0-.06,0,0a52,52,0,0,0,2.73-9.26,95.81,95.81,0,0,0,1.49-9.7,69.78,69.78,0,0,0,.3-9.8,51.86,51.86,0,0,0-1.27-9.7h0a.79.79,0,0,1,1.53-.4Z"/>
        <path d="M143.74,88.92a27,27,0,0,1,2.69,7,32.89,32.89,0,0,1,.67,7.43,64.39,64.39,0,0,0,.08,7,11.73,11.73,0,0,0,2.09,5.86l0,.08.06.12a48.54,48.54,0,0,1,3.18,7.39,32,32,0,0,1,1.55,8,34.26,34.26,0,0,1-.54,8.17c-.48,2.67-1.22,5.21-1.91,7.69s-1.37,4.91-1.82,7.33a39.13,39.13,0,0,0-.7,7.29,37.23,37.23,0,0,0,.76,7.27A54.94,54.94,0,0,0,152,176.7l0,.1,0,.06a69.61,69.61,0,0,1,2.3,11.82,33.78,33.78,0,0,1,0,6.2,35.59,35.59,0,0,1-1.23,6.08c-.58,1.94-1.22,3.77-1.79,5.59-.27.9-.56,1.81-.78,2.72l-.36,1.36-.29,1.38c-.22.91-.35,1.84-.51,2.78s-.26,1.87-.38,2.8a50.6,50.6,0,0,0-.42,5.61,51.68,51.68,0,0,0,1.29,11.2,79.7,79.7,0,0,1,1.94,11.71c0,1,.08,2,.06,3l-.17,3-.41,3-.11.74-.16.73-.33,1.46a59,59,0,0,1-1.59,5.72c-.63,1.86-1.38,3.68-2.07,5.52a.82.82,0,0,1-1.56-.53l0-.06c.55-1.84,1.18-3.67,1.68-5.52s1-3.7,1.26-5.59l.24-1.4.13-.71.06-.7.26-2.82,0-2.82c0-.94-.13-1.87-.19-2.8a77.86,77.86,0,0,0-2.29-11.22,54,54,0,0,1-1.69-11.9,52.59,52.59,0,0,1,.29-6c.11-1,.19-2,.35-3s.27-2,.49-3l.29-1.49.35-1.46c.23-1,.52-1.94.78-2.9.56-1.9,1.17-3.76,1.68-5.56a33.89,33.89,0,0,0,1-5.35,30,30,0,0,0-.07-5.44,66.52,66.52,0,0,0-2.24-11l0,.16a58.16,58.16,0,0,1-2.23-7.74,41.56,41.56,0,0,1-.83-8.11,39.65,39.65,0,0,1,.82-8.09c.52-2.65,1.26-5.19,2-7.67,1.48-4.95,2.77-9.7,2.55-14.53a35.65,35.65,0,0,0-4-14l.11.2a14.93,14.93,0,0,1-2.46-7.56,69.85,69.85,0,0,1,.21-7.34,29.42,29.42,0,0,0-.32-6.85A26,26,0,0,0,141.75,90l0,0a1.13,1.13,0,0,1,2-1Z"/>
        <path d="M124.43,107a45.3,45.3,0,0,1,1.66,9.22,66.18,66.18,0,0,1,.08,9.34,72.45,72.45,0,0,1-1.15,9.27,49.21,49.21,0,0,1-2.48,9.14l0-.1c-1.51,4.65-2.48,9.48-1.89,14.15a45.49,45.49,0,0,0,1.68,7.08c.29,1.27.63,2.53.87,3.81l.3,1.92.15,1,.08,1a61.37,61.37,0,0,1-.72,15.4c-.77,5-1.94,9.93-2.78,14.8-.44,2.43-.74,4.87-1,7.29s-.18,4.91-.15,7.37a76.86,76.86,0,0,0,1.6,14.66c1,4.83,2.35,9.77,3,14.82a106.66,106.66,0,0,1,.76,15.14.64.64,0,0,1-1.28,0h0a124.19,124.19,0,0,0-1.58-14.84c-.48-2.43-1-4.85-1.59-7.26s-1.29-4.83-1.87-7.3a71.76,71.76,0,0,1-2.06-15.15c-.08-2.55-.11-5.07,0-7.67a76.78,76.78,0,0,1,.92-7.63c.84-5,2-9.89,2.74-14.77a58.17,58.17,0,0,0,.73-14.58l-.06-.9-.13-.9-.26-1.79c-.21-1.19-.51-2.36-.76-3.54a47.8,47.8,0,0,1-1.69-7.56,27.83,27.83,0,0,1,.33-7.9,47,47,0,0,1,2-7.49v-.05l0,0a47.14,47.14,0,0,0,2.51-8.54,87.31,87.31,0,0,0,1.38-9,63.57,63.57,0,0,0,.28-9,48,48,0,0,0-1.17-8.94h0a.73.73,0,0,1,1.41-.38Z"/>
      </g>
      <g>
        <path d="M9.24,77.09a31.46,31.46,0,0,1,3.12,8.12,37.19,37.19,0,0,1,.78,8.62,77.39,77.39,0,0,0,.09,8.11,13.77,13.77,0,0,0,2.43,6.8l.06.08.07.14a56.87,56.87,0,0,1,3.69,8.58,37.52,37.52,0,0,1,1.8,9.32,40,40,0,0,1-.63,9.48c-.56,3.09-1.41,6-2.22,8.92s-1.59,5.69-2.11,8.51a45.54,45.54,0,0,0-.81,8.45,43.63,43.63,0,0,0,.88,8.43,62.09,62.09,0,0,0,2.4,8.25l0,.12,0,.07a80.31,80.31,0,0,1,2.67,13.71,40.25,40.25,0,0,1,0,7.2,41.94,41.94,0,0,1-1.43,7.05c-.67,2.24-1.41,4.36-2.07,6.47-.31,1.06-.65,2.11-.91,3.16l-.41,1.58-.34,1.6c-.25,1-.41,2.14-.59,3.22s-.3,2.17-.44,3.26a59.23,59.23,0,0,0-.49,6.5,60.7,60.7,0,0,0,1.49,13,91,91,0,0,1,2.25,13.58c0,1.17.1,2.34.07,3.51l-.19,3.49L18,269.86l-.13.86-.18.85-.38,1.69c-.43,2.27-1.2,4.43-1.84,6.63s-1.61,4.27-2.41,6.41a1,1,0,0,1-1.81-.61l0-.07c.65-2.14,1.37-4.26,2-6.41s1.16-4.29,1.47-6.48L15,271.1l.14-.81.08-.82.3-3.27,0-3.27c0-1.09-.15-2.17-.22-3.25a89.44,89.44,0,0,0-2.66-13A55.34,55.34,0,0,1,11,225.87c.12-1.15.22-2.31.41-3.46s.31-2.29.56-3.44l.34-1.71.41-1.71c.26-1.14.6-2.24.9-3.36.66-2.2,1.36-4.36,1.95-6.44a38.2,38.2,0,0,0,1.2-6.21,35.06,35.06,0,0,0-.08-6.31,77.62,77.62,0,0,0-2.6-12.81l.07.19a66.94,66.94,0,0,1-2.59-9,46.45,46.45,0,0,1,0-18.79c.6-3.06,1.47-6,2.31-8.89,1.71-5.74,3.2-11.26,3-16.86S14.74,116,12.21,110.8l.14.23a17.18,17.18,0,0,1-2.85-8.77,76,76,0,0,1,.24-8.51,34.89,34.89,0,0,0-.38-7.94,29.76,29.76,0,0,0-2.43-7.5l0,0a1.31,1.31,0,0,1,2.33-1.18Z"/>
        <path d="M74.09,86.8A27.91,27.91,0,0,1,76.87,94a33.44,33.44,0,0,1,.7,7.68,66.3,66.3,0,0,0,.08,7.23,12.07,12.07,0,0,0,2.16,6l0,.08.07.12a50.36,50.36,0,0,1,3.28,7.64,32.7,32.7,0,0,1,1.6,8.31,34.94,34.94,0,0,1-.56,8.44c-.49,2.76-1.26,5.38-2,7.94s-1.42,5.08-1.88,7.58a40,40,0,0,0-.72,7.53,38,38,0,0,0,.78,7.51,56.61,56.61,0,0,0,2.13,7.36l0,.1,0,.07A71,71,0,0,1,85,189.87a36.21,36.21,0,0,1,0,6.42,38,38,0,0,1-1.27,6.28c-.61,2-1.26,3.89-1.85,5.77-.28.94-.58,1.87-.81,2.81l-.37,1.41-.3,1.42c-.22.94-.37,1.91-.52,2.87s-.27,1.94-.4,2.9a51.43,51.43,0,0,0-.43,5.8,53.29,53.29,0,0,0,1.33,11.57,82.34,82.34,0,0,1,2,12.1c0,1,.09,2.08.06,3.12l-.17,3.11-.43,3.08-.11.76-.17.76-.33,1.5c-.39,2-1.07,3.95-1.64,5.91s-1.44,3.81-2.14,5.71a.86.86,0,0,1-1.62-.55l0-.06c.57-1.91,1.22-3.79,1.74-5.71s1-3.82,1.3-5.77l.25-1.45.13-.73.07-.73.26-2.91,0-2.91c0-1-.13-1.94-.19-2.9a79.24,79.24,0,0,0-2.37-11.59,55.62,55.62,0,0,1-1.74-12.29,53.82,53.82,0,0,1,.3-6.23c.11-1,.19-2.07.36-3.08s.28-2,.5-3.07l.3-1.53.37-1.51c.23-1,.53-2,.8-3,.58-2,1.21-3.88,1.73-5.74a34,34,0,0,0,1.08-5.53,32,32,0,0,0-.07-5.62,70.2,70.2,0,0,0-2.32-11.41l.06.17a60.15,60.15,0,0,1-2.31-8,42.7,42.7,0,0,1-.86-8.38,41.67,41.67,0,0,1,.85-8.36c.54-2.73,1.3-5.36,2-7.92,1.53-5.11,2.86-10,2.63-15a36.74,36.74,0,0,0-4.1-14.51l.12.2a15.3,15.3,0,0,1-2.54-7.81,69.44,69.44,0,0,1,.21-7.59,30.24,30.24,0,0,0-.33-7.07A26.77,26.77,0,0,0,72,87.88v0a1.16,1.16,0,0,1,2.07-1Z"/>
        <path d="M49,101.78a49.08,49.08,0,0,1,1.8,10,71.22,71.22,0,0,1,.08,10.12,79.26,79.26,0,0,1-1.24,10.05,53.72,53.72,0,0,1-2.69,9.9l0-.11c-1.64,5-2.69,10.27-2,15.33a49.17,49.17,0,0,0,1.82,7.68c.32,1.37.68,2.73.94,4.11l.32,2.09.16,1,.09,1.05a65.8,65.8,0,0,1-.77,16.67c-.84,5.45-2.11,10.76-3,16-.48,2.64-.8,5.27-1,7.9s-.19,5.32-.16,8A84,84,0,0,0,45,237.51c1.1,5.23,2.55,10.58,3.21,16.05a114.14,114.14,0,0,1,.83,16.4.71.71,0,0,1-.71.69.7.7,0,0,1-.68-.66h0A132.38,132.38,0,0,0,46,253.91c-.51-2.63-1-5.25-1.72-7.86s-1.39-5.23-2-7.91A79,79,0,0,1,40,221.72c-.08-2.76-.12-5.49,0-8.31a83.17,83.17,0,0,1,1-8.26c.9-5.44,2.11-10.72,3-16a63.09,63.09,0,0,0,.8-15.79l-.08-1-.13-1-.28-1.94c-.23-1.29-.55-2.56-.83-3.84a51.94,51.94,0,0,1-1.82-8.19,29.88,29.88,0,0,1,.35-8.56,52.35,52.35,0,0,1,2.18-8.11l0-.06,0,0A52,52,0,0,0,47,131.39a95.81,95.81,0,0,0,1.49-9.7,69.78,69.78,0,0,0,.3-9.8,51.86,51.86,0,0,0-1.27-9.7h0a.79.79,0,0,1,1.53-.4Z"/>
      </g>
      <g>
        <path d="M309.24-107.91a31.46,31.46,0,0,1,3.12,8.12,37.19,37.19,0,0,1,.78,8.62,77.39,77.39,0,0,0,.09,8.11,13.77,13.77,0,0,0,2.43,6.8l.06.08.07.14a56.87,56.87,0,0,1,3.69,8.58,37.52,37.52,0,0,1,1.8,9.32,40,40,0,0,1-.63,9.48c-.56,3.09-1.41,6-2.22,8.92s-1.59,5.69-2.11,8.51a45.54,45.54,0,0,0-.81,8.45,43.63,43.63,0,0,0,.88,8.43,62.09,62.09,0,0,0,2.4,8.25l0,.12,0,.07A80.31,80.31,0,0,1,321.52,7.8a40.25,40.25,0,0,1,0,7.2,41.94,41.94,0,0,1-1.43,7.05c-.67,2.24-1.41,4.36-2.07,6.47-.31,1.06-.65,2.11-.91,3.16l-.41,1.58-.34,1.6c-.25,1-.41,2.14-.59,3.22s-.3,2.17-.44,3.26a59.23,59.23,0,0,0-.49,6.5,60.7,60.7,0,0,0,1.49,13,91,91,0,0,1,2.25,13.58c0,1.17.1,2.34.07,3.51l-.19,3.49L318,84.86l-.13.86-.18.85-.38,1.69c-.43,2.27-1.2,4.43-1.84,6.63s-1.61,4.27-2.41,6.41a1,1,0,0,1-1.81-.61l0-.07c.65-2.14,1.37-4.26,2-6.41s1.16-4.29,1.47-6.48L315,86.1l.14-.81.08-.82.3-3.27,0-3.27c0-1.09-.15-2.17-.22-3.25a89.44,89.44,0,0,0-2.66-13,63.18,63.18,0,0,1-2-13.8,62.62,62.62,0,0,1,.34-7c.12-1.15.22-2.31.41-3.46s.31-2.29.56-3.44l.34-1.71.41-1.71c.26-1.14.6-2.24.9-3.36.66-2.2,1.36-4.36,1.95-6.44a38.2,38.2,0,0,0,1.2-6.21,35.06,35.06,0,0,0-.08-6.31,77.62,77.62,0,0,0-2.6-12.81l.07.19a66.94,66.94,0,0,1-2.59-9,47.67,47.67,0,0,1-1-9.4,47.4,47.4,0,0,1,.95-9.39c.6-3.06,1.47-6,2.31-8.89,1.71-5.74,3.2-11.26,2.95-16.86S314.74-69,312.21-74.2l.14.23a17.18,17.18,0,0,1-2.85-8.77,76,76,0,0,1,.24-8.51,34.89,34.89,0,0,0-.38-7.94,29.76,29.76,0,0,0-2.43-7.5l0,0a1.32,1.32,0,0,1,.63-1.74A1.31,1.31,0,0,1,309.24-107.91Z"/>
        <path d="M286.31-98.16a55.62,55.62,0,0,1,2,11.36,80.68,80.68,0,0,1,.1,11.53A89.87,89.87,0,0,1,287-63.84,62.36,62.36,0,0,1,284-52.56l0-.13C282.16-47,281-41,281.69-35.24a55.16,55.16,0,0,0,2.08,8.74c.36,1.56.77,3.11,1.06,4.69l.38,2.38.18,1.18.1,1.2a75.16,75.16,0,0,1-.88,19c-1,6.21-2.4,12.25-3.43,18.26-.55,3-.91,6-1.18,9s-.22,6.05-.18,9.09a94.76,94.76,0,0,0,2,18.08c1.25,6,2.9,12,3.66,18.27a132.83,132.83,0,0,1,.93,18.68.79.79,0,0,1-.81.77.78.78,0,0,1-.77-.74h0A152.39,152.39,0,0,0,282.85,75c-.58-3-1.19-6-2-9s-1.59-5.95-2.31-9A89.18,89.18,0,0,1,276,38.38c-.09-3.14-.13-6.25,0-9.46a93.87,93.87,0,0,1,1.14-9.4c1-6.19,2.4-12.21,3.37-18.22a71.61,71.61,0,0,0,.91-18l-.08-1.12-.16-1.1-.32-2.21c-.25-1.47-.63-2.91-.94-4.37a59.41,59.41,0,0,1-2.08-9.32,34.53,34.53,0,0,1,.4-9.75,59.61,59.61,0,0,1,2.49-9.24l0-.06,0-.06A58.48,58.48,0,0,0,284-64.45a107.76,107.76,0,0,0,1.7-11A78.54,78.54,0,0,0,286-86.65a59.4,59.4,0,0,0-1.44-11h0a.9.9,0,0,1,.67-1.09A.91.91,0,0,1,286.31-98.16Z"/>
        <path d="M374.09-98.2A27.91,27.91,0,0,1,376.87-91a33.44,33.44,0,0,1,.7,7.68,66.3,66.3,0,0,0,.08,7.23,12.07,12.07,0,0,0,2.16,6l.05.08.07.12a50.36,50.36,0,0,1,3.28,7.64,32.7,32.7,0,0,1,1.6,8.31,34.94,34.94,0,0,1-.56,8.44c-.49,2.76-1.26,5.38-2,7.94s-1.42,5.08-1.88,7.58a40,40,0,0,0-.72,7.53,38,38,0,0,0,.78,7.51,56.61,56.61,0,0,0,2.13,7.36l0,.1,0,.07A71,71,0,0,1,385,4.87a36.21,36.21,0,0,1,0,6.42,38,38,0,0,1-1.27,6.28c-.61,2-1.26,3.89-1.85,5.77-.28.94-.58,1.87-.81,2.81l-.37,1.41-.3,1.42c-.22.94-.37,1.91-.52,2.87s-.27,1.94-.4,2.9a51.43,51.43,0,0,0-.43,5.8,53.29,53.29,0,0,0,1.33,11.57,82.34,82.34,0,0,1,2,12.1c0,1,.09,2.08.06,3.12l-.17,3.11-.43,3.08-.11.76-.17.76-.33,1.5c-.39,2-1.07,4-1.64,5.91s-1.44,3.81-2.14,5.71a.86.86,0,0,1-1.62-.55l0-.06c.57-1.91,1.22-3.79,1.74-5.71s1-3.82,1.3-5.77l.25-1.45.13-.73.07-.73.26-2.91,0-2.91c0-1-.13-1.94-.19-2.9a79.24,79.24,0,0,0-2.37-11.59,55.62,55.62,0,0,1-1.74-12.29,53.82,53.82,0,0,1,.3-6.23c.11-1,.19-2.07.36-3.08s.28-2.05.5-3.07l.3-1.53.37-1.51c.23-1,.53-2,.8-3,.58-2,1.21-3.88,1.73-5.74a34,34,0,0,0,1.08-5.53,32,32,0,0,0-.07-5.62,70.2,70.2,0,0,0-2.32-11.41l.06.17a60.15,60.15,0,0,1-2.31-8,42.7,42.7,0,0,1-.86-8.38,41.67,41.67,0,0,1,.85-8.36c.54-2.73,1.3-5.36,2-7.92,1.53-5.11,2.86-10,2.63-15a36.74,36.74,0,0,0-4.1-14.51l.12.2a15.3,15.3,0,0,1-2.54-7.81,69.44,69.44,0,0,1,.21-7.59,30.24,30.24,0,0,0-.33-7.07A26.77,26.77,0,0,0,372-97.12v0a1.15,1.15,0,0,1,.56-1.55A1.16,1.16,0,0,1,374.09-98.2Z"/>
        <path d="M349-83.22a49.08,49.08,0,0,1,1.8,10,71.22,71.22,0,0,1,.08,10.12,79.26,79.26,0,0,1-1.24,10,53.72,53.72,0,0,1-2.69,9.9l.05-.11c-1.64,5-2.69,10.27-2.05,15.33a49.17,49.17,0,0,0,1.82,7.68c.32,1.37.68,2.73.94,4.11l.32,2.09L348.2-13l.09,1a65.8,65.8,0,0,1-.77,16.67c-.84,5.45-2.11,10.76-3,16-.48,2.64-.8,5.27-1,7.9s-.19,5.32-.16,8A84,84,0,0,0,345,52.51c1.1,5.23,2.55,10.58,3.21,16.05a114.14,114.14,0,0,1,.83,16.4.71.71,0,0,1-.71.69.7.7,0,0,1-.68-.66h0A132.38,132.38,0,0,0,346,68.91c-.51-2.63-1-5.25-1.72-7.86s-1.39-5.23-2-7.91A79,79,0,0,1,340,36.72c-.08-2.76-.12-5.49,0-8.31a83.17,83.17,0,0,1,1-8.26c.9-5.44,2.11-10.72,3-16a63.09,63.09,0,0,0,.8-15.79l-.08-1-.13-1-.28-1.94c-.23-1.29-.55-2.56-.83-3.84a51.94,51.94,0,0,1-1.82-8.19,29.88,29.88,0,0,1,.35-8.56,52.35,52.35,0,0,1,2.18-8.11l0-.06,0-.05A52,52,0,0,0,347-53.61a95.81,95.81,0,0,0,1.49-9.7,69.78,69.78,0,0,0,.3-9.8,51.86,51.86,0,0,0-1.27-9.7h0a.79.79,0,0,1,.59-1A.79.79,0,0,1,349-83.22Z"/>
        <path d="M243.74-96.08a27,27,0,0,1,2.69,7,32.89,32.89,0,0,1,.67,7.43,64.39,64.39,0,0,0,.08,7,11.73,11.73,0,0,0,2.09,5.86l0,.08.06.12a48.54,48.54,0,0,1,3.18,7.39,32,32,0,0,1,1.55,8,34.26,34.26,0,0,1-.54,8.17c-.48,2.67-1.22,5.21-1.91,7.69s-1.37,4.91-1.82,7.33a39.13,39.13,0,0,0-.7,7.29,37.23,37.23,0,0,0,.76,7.27A54.94,54.94,0,0,0,252-8.3l0,.1,0,.06a69.61,69.61,0,0,1,2.3,11.82,33.78,33.78,0,0,1,0,6.2A35.59,35.59,0,0,1,253.11,16c-.58,1.94-1.22,3.77-1.79,5.59-.27.9-.56,1.81-.78,2.72l-.36,1.36L249.89,27c-.22.91-.35,1.84-.51,2.78s-.26,1.87-.38,2.8a50.6,50.6,0,0,0-.42,5.61,51.68,51.68,0,0,0,1.29,11.2,79.7,79.7,0,0,1,1.94,11.71c0,1,.08,2,.06,3l-.17,3-.41,3-.11.74-.16.73-.33,1.46a59,59,0,0,1-1.59,5.72c-.63,1.86-1.38,3.68-2.07,5.52a.82.82,0,0,1-1.56-.53l0-.06c.55-1.84,1.18-3.67,1.68-5.52s1-3.7,1.26-5.59l.24-1.4.13-.71.06-.7.26-2.82,0-2.82c0-.94-.13-1.87-.19-2.8a77.86,77.86,0,0,0-2.29-11.22A54,54,0,0,1,245,38.22a52.59,52.59,0,0,1,.29-6c.11-1,.19-2,.35-3s.27-2,.49-3l.29-1.49.35-1.46c.23-1,.52-1.94.78-2.9.56-1.9,1.17-3.76,1.68-5.56a33.89,33.89,0,0,0,1-5.35,30,30,0,0,0-.07-5.44,66.52,66.52,0,0,0-2.24-11l0,.16a58.16,58.16,0,0,1-2.23-7.74,41.56,41.56,0,0,1-.83-8.11,39.65,39.65,0,0,1,.82-8.09c.52-2.65,1.26-5.19,2-7.67,1.48-5,2.77-9.7,2.55-14.53a35.65,35.65,0,0,0-4-14l.11.2A14.93,14.93,0,0,1,244-74.38a69.85,69.85,0,0,1,.21-7.34,29.42,29.42,0,0,0-.32-6.85A26,26,0,0,0,241.75-95l0,0a1.14,1.14,0,0,1,.54-1.5A1.14,1.14,0,0,1,243.74-96.08Z"/>
        <path d="M224.43-78a45.3,45.3,0,0,1,1.66,9.22,66.18,66.18,0,0,1,.08,9.34A72.45,72.45,0,0,1,225-50.22a49.21,49.21,0,0,1-2.48,9.14l0-.1c-1.51,4.65-2.48,9.48-1.89,14.15a45.49,45.49,0,0,0,1.68,7.08c.29,1.27.63,2.53.87,3.81l.3,1.92.15,1,.08,1a61.37,61.37,0,0,1-.72,15.4c-.77,5-1.94,9.93-2.78,14.8-.44,2.43-.74,4.87-1,7.29s-.18,4.91-.15,7.37a76.86,76.86,0,0,0,1.6,14.66c1,4.83,2.35,9.77,3,14.82a106.66,106.66,0,0,1,.76,15.14.64.64,0,0,1-1.28,0h0a124.19,124.19,0,0,0-1.58-14.84c-.48-2.43-1-4.85-1.59-7.26s-1.29-4.83-1.87-7.3a71.76,71.76,0,0,1-2.06-15.15c-.08-2.55-.11-5.07,0-7.67a76.78,76.78,0,0,1,.92-7.63c.84-5,1.95-9.89,2.74-14.77A58.17,58.17,0,0,0,220.53-12l-.06-.9-.13-.9-.26-1.79c-.21-1.19-.51-2.36-.76-3.54a47.8,47.8,0,0,1-1.69-7.56,27.83,27.83,0,0,1,.33-7.9,47,47,0,0,1,2-7.49v0l0-.05a47.14,47.14,0,0,0,2.51-8.54,87.31,87.31,0,0,0,1.38-9,63.57,63.57,0,0,0,.28-9A48,48,0,0,0,223-77.66h0a.73.73,0,0,1,.54-.88A.73.73,0,0,1,224.43-78Z"/>
      </g>
      <g>
        <path d="M109.24-107.91a31.46,31.46,0,0,1,3.12,8.12,37.19,37.19,0,0,1,.78,8.62,77.39,77.39,0,0,0,.09,8.11,13.77,13.77,0,0,0,2.43,6.8l.06.08.07.14a56.87,56.87,0,0,1,3.69,8.58,37.52,37.52,0,0,1,1.8,9.32,40,40,0,0,1-.63,9.48c-.56,3.09-1.41,6-2.22,8.92s-1.59,5.69-2.11,8.51a45.54,45.54,0,0,0-.81,8.45,43.63,43.63,0,0,0,.88,8.43,62.09,62.09,0,0,0,2.4,8.25l0,.12,0,.07A80.31,80.31,0,0,1,121.52,7.8a40.25,40.25,0,0,1,0,7.2,41.94,41.94,0,0,1-1.43,7.05c-.67,2.24-1.41,4.36-2.07,6.47-.31,1.06-.65,2.11-.91,3.16l-.41,1.58-.34,1.6c-.25,1-.41,2.14-.59,3.22s-.3,2.17-.44,3.26a59.23,59.23,0,0,0-.49,6.5,60.7,60.7,0,0,0,1.49,13,91,91,0,0,1,2.25,13.58c0,1.17.1,2.34.07,3.51l-.19,3.49L118,84.86l-.13.86-.18.85-.38,1.69c-.43,2.27-1.2,4.43-1.84,6.63s-1.61,4.27-2.41,6.41a1,1,0,0,1-1.81-.61l0-.07c.65-2.14,1.37-4.26,2-6.41s1.16-4.29,1.47-6.48L115,86.1l.14-.81.08-.82.3-3.27,0-3.27c0-1.09-.15-2.17-.22-3.25a89.44,89.44,0,0,0-2.66-13,63.18,63.18,0,0,1-2-13.8,62.62,62.62,0,0,1,.34-7c.12-1.15.22-2.31.41-3.46s.31-2.29.56-3.44l.34-1.71.41-1.71c.26-1.14.6-2.24.9-3.36.66-2.2,1.36-4.36,2-6.44a38.2,38.2,0,0,0,1.2-6.21,35.06,35.06,0,0,0-.08-6.31,77.62,77.62,0,0,0-2.6-12.81l.07.19a66.94,66.94,0,0,1-2.59-9,47.67,47.67,0,0,1-1-9.4,47.4,47.4,0,0,1,1-9.39c.6-3.06,1.47-6,2.31-8.89,1.71-5.74,3.2-11.26,2.95-16.86S114.74-69,112.21-74.2l.14.23a17.18,17.18,0,0,1-2.85-8.77,76,76,0,0,1,.24-8.51,34.89,34.89,0,0,0-.38-7.94,29.76,29.76,0,0,0-2.43-7.5l0,0a1.32,1.32,0,0,1,.63-1.74A1.31,1.31,0,0,1,109.24-107.91Z"/>
        <path d="M86.31-98.16a55.62,55.62,0,0,1,2,11.36,80.68,80.68,0,0,1,.1,11.53A89.87,89.87,0,0,1,87-63.84,62.36,62.36,0,0,1,84-52.56l0-.13C82.16-47,81-41,81.69-35.24a55.16,55.16,0,0,0,2.08,8.74c.36,1.56.77,3.11,1.06,4.69l.38,2.38.18,1.18.1,1.2a75.16,75.16,0,0,1-.88,19c-1,6.21-2.4,12.25-3.43,18.26-.55,3-.91,6-1.18,9s-.22,6.05-.18,9.09a94.76,94.76,0,0,0,2,18.08c1.25,6,2.9,12,3.66,18.27a132.83,132.83,0,0,1,.93,18.68.79.79,0,0,1-.81.77.78.78,0,0,1-.77-.74h0a152.39,152.39,0,0,0-2-18.29c-.58-3-1.19-6-2-9s-1.59-5.95-2.31-9A89.18,89.18,0,0,1,76,38.38c-.09-3.14-.13-6.25,0-9.46a93.87,93.87,0,0,1,1.14-9.4c1-6.19,2.4-12.21,3.37-18.22a71.61,71.61,0,0,0,.91-18l-.08-1.12-.16-1.1-.32-2.21c-.25-1.47-.63-2.91-.94-4.37a59.41,59.41,0,0,1-2.08-9.32,34.53,34.53,0,0,1,.4-9.75,59.61,59.61,0,0,1,2.49-9.24l0-.06,0-.06A58.48,58.48,0,0,0,84-64.45a107.76,107.76,0,0,0,1.7-11A78.54,78.54,0,0,0,86-86.65a59.4,59.4,0,0,0-1.44-11h0a.9.9,0,0,1,.67-1.09A.91.91,0,0,1,86.31-98.16Z"/>
        <path d="M174.09-98.2A27.91,27.91,0,0,1,176.87-91a33.44,33.44,0,0,1,.7,7.68,66.3,66.3,0,0,0,.08,7.23,12.07,12.07,0,0,0,2.16,6l.05.08.07.12a50.36,50.36,0,0,1,3.28,7.64,32.7,32.7,0,0,1,1.6,8.31,34.94,34.94,0,0,1-.56,8.44c-.49,2.76-1.26,5.38-2,7.94s-1.42,5.08-1.88,7.58a40,40,0,0,0-.72,7.53,38,38,0,0,0,.78,7.51,56.61,56.61,0,0,0,2.13,7.36l0,.1,0,.07A71,71,0,0,1,185,4.87a36.21,36.21,0,0,1,0,6.42,38,38,0,0,1-1.27,6.28c-.61,2-1.26,3.89-1.85,5.77-.28.94-.58,1.87-.81,2.81l-.37,1.41-.3,1.42c-.22.94-.37,1.91-.52,2.87s-.27,1.94-.4,2.9a51.43,51.43,0,0,0-.43,5.8,53.29,53.29,0,0,0,1.33,11.57,82.34,82.34,0,0,1,2,12.1c0,1,.09,2.08.06,3.12l-.17,3.11-.43,3.08-.11.76-.17.76-.33,1.5c-.39,2-1.07,4-1.64,5.91s-1.44,3.81-2.14,5.71a.86.86,0,0,1-1.62-.55l0-.06c.57-1.91,1.22-3.79,1.74-5.71s1-3.82,1.3-5.77l.25-1.45.13-.73.07-.73.26-2.91,0-2.91c0-1-.13-1.94-.19-2.9a79.24,79.24,0,0,0-2.37-11.59,55.62,55.62,0,0,1-1.74-12.29,53.82,53.82,0,0,1,.3-6.23c.11-1,.19-2.07.36-3.08s.28-2.05.5-3.07l.3-1.53.37-1.51c.23-1,.53-2,.8-3,.58-2,1.21-3.88,1.73-5.74a34,34,0,0,0,1.08-5.53,32,32,0,0,0-.07-5.62,70.2,70.2,0,0,0-2.32-11.41l.06.17a60.15,60.15,0,0,1-2.31-8,42.7,42.7,0,0,1-.86-8.38,41.67,41.67,0,0,1,.85-8.36c.54-2.73,1.3-5.36,2.05-7.92,1.53-5.11,2.86-10,2.63-15a36.74,36.74,0,0,0-4.1-14.51l.12.2a15.3,15.3,0,0,1-2.54-7.81,69.44,69.44,0,0,1,.21-7.59,30.24,30.24,0,0,0-.33-7.07A26.77,26.77,0,0,0,172-97.12v0a1.15,1.15,0,0,1,.56-1.55A1.16,1.16,0,0,1,174.09-98.2Z"/>
        <path d="M149-83.22a49.08,49.08,0,0,1,1.8,10,71.22,71.22,0,0,1,.08,10.12,79.26,79.26,0,0,1-1.24,10,53.72,53.72,0,0,1-2.69,9.9l0-.11c-1.64,5-2.69,10.27-2,15.33a49.17,49.17,0,0,0,1.82,7.68c.32,1.37.68,2.73.94,4.11l.32,2.09L148.2-13l.09,1a65.8,65.8,0,0,1-.77,16.67c-.84,5.45-2.11,10.76-3,16-.48,2.64-.8,5.27-1,7.9s-.19,5.32-.16,8A84,84,0,0,0,145,52.51c1.1,5.23,2.55,10.58,3.21,16.05a114.14,114.14,0,0,1,.83,16.4.71.71,0,0,1-.71.69.7.7,0,0,1-.68-.66h0A132.38,132.38,0,0,0,146,68.91c-.51-2.63-1-5.25-1.72-7.86s-1.39-5.23-2-7.91A79,79,0,0,1,140,36.72c-.08-2.76-.12-5.49,0-8.31a83.17,83.17,0,0,1,1-8.26c.9-5.44,2.11-10.72,3-16a63.09,63.09,0,0,0,.8-15.79l-.08-1-.13-1-.28-1.94c-.23-1.29-.55-2.56-.83-3.84a51.94,51.94,0,0,1-1.82-8.19,29.88,29.88,0,0,1,.35-8.56,52.35,52.35,0,0,1,2.18-8.11l0-.06,0-.05A52,52,0,0,0,147-53.61a95.81,95.81,0,0,0,1.49-9.7,69.78,69.78,0,0,0,.3-9.8,51.86,51.86,0,0,0-1.27-9.7h0a.79.79,0,0,1,.59-1A.79.79,0,0,1,149-83.22Z"/>
        <path d="M43.74-96.08a27,27,0,0,1,2.69,7,32.89,32.89,0,0,1,.67,7.43,64.39,64.39,0,0,0,.08,7,11.73,11.73,0,0,0,2.09,5.86l0,.08.06.12a48.54,48.54,0,0,1,3.18,7.39,32,32,0,0,1,1.55,8A34.26,34.26,0,0,1,53.57-45c-.48,2.67-1.22,5.21-1.91,7.69S50.29-32.4,49.84-30a39.13,39.13,0,0,0-.7,7.29,37.23,37.23,0,0,0,.76,7.27A54.94,54.94,0,0,0,52-8.3l0,.1,0,.06a69.61,69.61,0,0,1,2.3,11.82,33.78,33.78,0,0,1,0,6.2A35.59,35.59,0,0,1,53.11,16c-.58,1.94-1.22,3.77-1.79,5.59-.27.9-.56,1.81-.78,2.72l-.36,1.36L49.89,27c-.22.91-.35,1.84-.51,2.78s-.26,1.87-.38,2.8a50.6,50.6,0,0,0-.42,5.61,51.68,51.68,0,0,0,1.29,11.2,79.7,79.7,0,0,1,1.94,11.71c0,1,.08,2,.06,3l-.17,3-.41,3-.11.74-.16.73-.33,1.46a59,59,0,0,1-1.59,5.72c-.63,1.86-1.38,3.68-2.07,5.52a.82.82,0,0,1-1.56-.53l0-.06c.55-1.84,1.18-3.67,1.68-5.52s1-3.7,1.26-5.59l.24-1.4.13-.71.06-.7L49.12,67l0-2.82c0-.94-.13-1.87-.19-2.8a77.86,77.86,0,0,0-2.29-11.22A54,54,0,0,1,45,38.22a52.59,52.59,0,0,1,.29-6c.11-1,.19-2,.35-3s.27-2,.49-3l.29-1.49.35-1.46c.23-1,.52-1.94.78-2.9.56-1.9,1.17-3.76,1.68-5.56a33.89,33.89,0,0,0,1-5.35,30,30,0,0,0-.07-5.44A66.52,66.52,0,0,0,47.93-7l0,.16a58.16,58.16,0,0,1-2.23-7.74,41.56,41.56,0,0,1-.83-8.11,39.65,39.65,0,0,1,.82-8.09c.52-2.65,1.26-5.19,2-7.67,1.48-5,2.77-9.7,2.55-14.53a35.65,35.65,0,0,0-4-14l.11.2A14.93,14.93,0,0,1,44-74.38a69.85,69.85,0,0,1,.21-7.34,29.42,29.42,0,0,0-.32-6.85A26,26,0,0,0,41.75-95l0,0a1.14,1.14,0,0,1,.54-1.5A1.14,1.14,0,0,1,43.74-96.08Z"/>
        <path d="M24.43-78a45.3,45.3,0,0,1,1.66,9.22,66.18,66.18,0,0,1,.08,9.34A72.45,72.45,0,0,1,25-50.22a49.21,49.21,0,0,1-2.48,9.14l0-.1C21.07-36.53,20.1-31.7,20.69-27a45.49,45.49,0,0,0,1.68,7.08c.29,1.27.63,2.53.87,3.81l.3,1.92.15,1,.08,1a61.37,61.37,0,0,1-.72,15.4c-.77,5-1.94,9.93-2.78,14.8-.44,2.43-.74,4.87-.95,7.29s-.18,4.91-.15,7.37a76.86,76.86,0,0,0,1.6,14.66c1,4.83,2.35,9.77,3,14.82a106.66,106.66,0,0,1,.76,15.14.64.64,0,0,1-1.28,0h0a124.19,124.19,0,0,0-1.58-14.84c-.48-2.43-1-4.85-1.59-7.26s-1.29-4.83-1.87-7.3a71.76,71.76,0,0,1-2.06-15.15c-.08-2.55-.11-5.07,0-7.67a76.78,76.78,0,0,1,.92-7.63c.84-5,2-9.89,2.74-14.77A58.17,58.17,0,0,0,20.53-12l-.06-.9-.13-.9-.26-1.79c-.21-1.19-.51-2.36-.76-3.54a47.8,47.8,0,0,1-1.69-7.56,27.83,27.83,0,0,1,.33-7.9,47,47,0,0,1,2-7.49v0l0-.05a47.14,47.14,0,0,0,2.51-8.54,87.31,87.31,0,0,0,1.38-9,63.57,63.57,0,0,0,.28-9A48,48,0,0,0,23-77.66h0a.73.73,0,0,1,.54-.88A.73.73,0,0,1,24.43-78Z"/>
      </g>
    </pattern>
  </defs>
  <rect class="cls-2" width="1366" height="767.98"/>
</svg>
