<svg xmlns="http://www.w3.org/2000/svg" style="display: none;">
<symbol id="btn__cart--symbol" width="56" height="59" viewBox="0 0 56 59">
  <g id="btn__cart" transform="translate(-0.458 -0.25)">
    <ellipse id="bg" cx="28" cy="29.5" rx="28" ry="29.5" transform="translate(0.458 0.25)" fill="#dedede"/>
    <g id="cart" transform="translate(9.001 16.691)">
      <path id="line" d="M1324.972,51.816h-15.816a4.09,4.09,0,0,1-3.982-3.451l-2.654-15.989A3.364,3.364,0,0,0,1299.2,29.5h-2.1" transform="translate(-1297.1 -29.5)" fill="none" stroke="#001a3e" stroke-linecap="round" stroke-linejoin="round" stroke-miterlimit="10" stroke-width="1.337"/>
      <path id="cart-2" data-name="cart" d="M1302.2,33.1h27.208a.845.845,0,0,1,.774,1.15l-2.654,8.857a4.3,4.3,0,0,1-4.092,3.106h-19.023Z" transform="translate(-1296.56 -28.958)" fill="#001a3e"/>
      <ellipse id="wheell" cx="2.212" cy="2.301" rx="2.212" ry="2.301" transform="translate(8.959 24.271)" fill="#001a3e"/>
      <ellipse id="wheelr" cx="2.212" cy="2.301" rx="2.212" ry="2.301" transform="translate(23.448 24.271)" fill="#001a3e"/>
    </g>
  </g>
</symbol>
</svg>
