<?xml version="1.0" encoding="utf-8"?>
<!-- Generator: Adobe Illustrator 25.2.1, SVG Export Plug-In . SVG Version: 6.00 Build 0)  -->
<svg version="1.1" id="logo" xmlns="http://www.w3.org/2000/svg" xmlns:xlink="http://www.w3.org/1999/xlink" x="0px" y="0px"
	 viewBox="0 0 155 35" style="enable-background:new 0 0 155 35;" xml:space="preserve">
<style type="text/css">
	.st0{fill:#001A3E;}
	.st1{fill:none;stroke:#001A3E;stroke-width:3;}
</style>
<path id="ol" class="st0" d="M154.7,9v3.3c0.1,1.7-0.4,3.3-1.4,4.7c-0.9,1.3-2.2,2.2-3.7,2.7c-1.7,0.6-3.5,0.8-5.3,0.8
	c-1.8,0-3.6-0.2-5.3-0.8c-1.5-0.5-2.7-1.4-3.7-2.7c-1-1.4-1.5-3.1-1.4-4.8V9c-0.2-2.4,0.9-4.7,2.8-6.2c2.2-1.4,4.8-2.2,7.5-2.1
	c2.7-0.1,5.3,0.6,7.5,2.1C153.7,4.2,154.9,6.6,154.7,9z M141.6,8.6v4.3c0,0.7,0.3,1.3,0.8,1.7c1.3,0.8,2.9,0.8,4.2,0
	c0.5-0.4,0.8-1.1,0.8-1.7V8.6c0-0.7-0.2-1.3-0.8-1.7c-1.3-0.8-2.9-0.8-4.2,0C141.8,7.3,141.5,7.9,141.6,8.6z"/>
<g>
	<path id="r" class="st0" d="M44.1,21.2c0,0.1,0.1,0.2,0.1,0.3c0,0.3-0.3,0.6-0.7,0.6h-6.3c-0.5,0.1-1-0.2-1.1-0.7l-2.5-5.5h-2.4
		v5.5c0,0.2-0.1,0.4-0.2,0.6c-0.2,0.2-0.3,0.2-0.6,0.2h-6c-0.2,0-0.4-0.1-0.6-0.2c-0.2-0.2-0.2-0.3-0.2-0.6V3.3
		c0-0.2,0.1-0.4,0.2-0.6c0.2-0.2,0.3-0.2,0.6-0.2h10.9c2.2-0.1,4.3,0.5,6.1,1.8c1.5,1.2,2.3,3,2.3,4.9c0.2,2.3-1,4.4-2.9,5.5
		L44.1,21.2z M31.2,7.7v2.9h3.5c0.4,0,0.7-0.1,0.9-0.4c0.2-0.3,0.4-0.7,0.4-1c0-0.4-0.1-0.7-0.3-1c-0.2-0.3-0.6-0.5-0.9-0.5
		L31.2,7.7z"/>
	<path id="i" class="st0" d="M64,7h-5v8.1h5c0.2,0,0.4,0.1,0.6,0.2c0.2,0.2,0.2,0.3,0.2,0.6v4.2c0,0.2-0.1,0.4-0.2,0.6
		c-0.2,0.2-0.3,0.2-0.6,0.2H46.3c-0.2,0-0.4-0.1-0.6-0.2c-0.2-0.2-0.2-0.3-0.2-0.6V16c0-0.2,0.1-0.4,0.2-0.6
		c0.2-0.2,0.3-0.2,0.6-0.2h5.1V7.1h-5.1c-0.2,0-0.4-0.1-0.6-0.2c-0.2-0.2-0.2-0.3-0.2-0.6V2.2c0-0.2,0.1-0.4,0.2-0.6
		c0.2-0.2,0.3-0.2,0.6-0.2H64c0.2,0,0.4,0.1,0.6,0.2c0.2,0.2,0.2,0.3,0.2,0.6v4.2c0,0.2-0.1,0.4-0.2,0.6C64.4,7,64.2,7,64,7z"/>
	<path id="oc" class="st0" d="M109.4,11.1v3.3c0.1,1.7-0.4,3.3-1.4,4.7c-0.9,1.3-2.2,2.2-3.7,2.7c-1.7,0.6-3.5,0.8-5.3,0.8
		c-1.8,0-3.6-0.2-5.3-0.8c-1.5-0.5-2.7-1.4-3.7-2.7c-1-1.4-1.5-3.1-1.4-4.8v-3.1c-0.2-2.4,0.9-4.7,2.8-6.2c2.2-1.4,4.8-2.2,7.5-2.1
		c2.7-0.1,5.3,0.6,7.5,2.1C108.5,6.4,109.6,8.7,109.4,11.1z M96.2,10.6v4.3c0,0.7,0.3,1.3,0.8,1.7c1.3,0.8,2.9,0.8,4.2,0
		c0.5-0.4,0.8-1.1,0.8-1.7v-4.2c0-0.7-0.2-1.3-0.8-1.7c-1.3-0.8-2.9-0.8-4.2,0C96.5,9.4,96.2,10,96.2,10.6z"/>
	<path id="c" class="st0" d="M119,12.1v4.3c0,0.7,0.3,1.3,0.8,1.7c0.6,0.4,1.3,0.6,2,0.6c0.6,0.1,1.3-0.1,1.8-0.4
		c0.4-0.3,0.7-0.6,0.9-1c0.3-0.5,0.6-0.8,0.9-0.8h6.1c0.2,0,0.3,0.1,0.5,0.2c0.1,0.1,0.2,0.2,0.2,0.4c-0.1,1.8-1,3.5-2.5,4.7
		c-1,0.7-2.1,1.3-3.2,1.7c-1.6,0.5-3.2,0.7-4.8,0.7c-1.7,0-3.4-0.3-5-0.9c-3.1-1.1-5.2-4.1-5.1-7.4v-3.2c-0.1-1.7,0.4-3.3,1.4-4.7
		c1.8-2.4,4.7-3.5,9-3.5c1.5,0,3.1,0.2,4.5,0.7c1.2,0.3,2.3,0.9,3.2,1.7c1.5,1.1,2.4,2.8,2.5,4.7c0,0.1-0.1,0.3-0.2,0.4
		c-0.1,0.1-0.3,0.2-0.5,0.2h-6.1c-0.4,0-0.8-0.3-0.9-0.8c-0.2-0.4-0.5-0.8-0.9-1c-0.5-0.3-1.2-0.4-1.8-0.4c-0.7,0-1.4,0.2-2,0.6
		C119.3,10.8,119,11.4,119,12.1z"/>
	<path id="n" class="st0" d="M80.5,4.5h5.2c0.2,0,0.4,0.1,0.6,0.2c0.2,0.2,0.2,0.3,0.2,0.6v18.1c0,0.2-0.1,0.4-0.2,0.6
		c-0.2,0.2-0.3,0.2-0.6,0.2h-4.4c-0.5,0-0.9-0.2-1.1-0.6L74,15.7v7.6c0,0.2-0.1,0.4-0.2,0.6c-0.2,0.2-0.3,0.2-0.6,0.2h-5.2
		c-0.2,0-0.4-0.1-0.6-0.2c-0.2-0.2-0.2-0.3-0.2-0.6V5.2c0-0.2,0.1-0.4,0.2-0.6c0.2-0.2,0.3-0.2,0.6-0.2h4.5c0.4,0,0.8,0.2,1,0.6
		l6.1,8.5V5.2c0-0.2,0.1-0.4,0.2-0.6C80.1,4.5,80.2,4.5,80.5,4.5z"/>
	<path id="of" class="st0" d="M21.2,11.1v3.3c0.1,1.7-0.4,3.3-1.4,4.7c-0.9,1.3-2.2,2.2-3.7,2.7c-1.7,0.6-3.5,0.8-5.3,0.8
		c-1.8,0-3.6-0.2-5.3-0.8c-1.5-0.5-2.7-1.4-3.7-2.7c-1-1.4-1.5-3.1-1.4-4.8v-3.1C0.2,8.8,1.3,6.5,3.2,5c2.2-1.4,4.8-2.2,7.5-2.1
		C13.4,2.8,16,3.5,18.2,5C20.2,6.4,21.4,8.7,21.2,11.1z M8,10.6v4.3c0,0.7,0.3,1.3,0.8,1.7c0.6,0.4,1.3,0.6,2.1,0.6
		c0.7,0,1.5-0.2,2.1-0.6c0.5-0.4,0.8-1.1,0.8-1.7v-4.2c0-0.7-0.2-1.3-0.8-1.7c-0.6-0.4-1.3-0.6-2.1-0.6c-0.7,0-1.5,0.2-2.1,0.6
		C8.2,9.4,7.9,10,8,10.6z"/>
	<path id="ligne" class="st1" d="M1.1,27.4L33.2,31l22.6-3.6L78,32.7l23-3.8l23.4,2l30.2-6"/>
</g>
</svg>
