<svg id="picto__cart" xmlns="http://www.w3.org/2000/svg" width="50" height="51" viewBox="0 0 50 51">
  <ellipse id="bg" cx="25" cy="25.5" rx="25" ry="25.5" fill="#001a3e"/>
  <ellipse id="picto__cart--bg" cx="25" cy="25.5" rx="25" ry="25.5"/>
  <g id="cart" transform="translate(8.395 14.307)">
    <path id="line" d="M1321.733,48.628h-13.978a3.581,3.581,0,0,1-3.519-2.958l-2.346-13.7a2.946,2.946,0,0,0-2.932-2.465H1297.1" transform="translate(-1297.1 -29.5)" fill="none" stroke="#dedede" stroke-linecap="round" stroke-linejoin="round" stroke-miterlimit="10" stroke-width="1.337"/>
    <path id="cart-2" data-name="cart" d="M1302.2,33.1h24.046a.727.727,0,0,1,.684.986l-2.346,7.592a3.788,3.788,0,0,1-3.617,2.662h-16.812Z" transform="translate(-1297.215 -29.551)" fill="#dedede"/>
    <ellipse id="wheel2" cx="1.955" cy="1.972" rx="1.955" ry="1.972" transform="translate(7.918 20.804)" fill="#dedede"/>
    <ellipse id="wheel" cx="1.955" cy="1.972" rx="1.955" ry="1.972" transform="translate(20.723 20.804)" fill="#dedede"/>
  </g>
</svg>
