<svg id="trash__icon" xmlns="http://www.w3.org/2000/svg" viewBox="0 0 38.38 43.06">
  <defs>
    <style>
      .cls-1, .cls-2 {
        fill: none;
        stroke: #000;
        stroke-linecap: round;
        stroke-linejoin: round;
      }

      .cls-1 {
        stroke-width: 2.38px;
      }

      .cls-2 {
        stroke-width: 1.33px;
      }
    </style>
  </defs>
  <g id="trash__paths">
    <g id="body">
      <path class="cls-1" d="M12.32,17V38.4c0,3.13,2.22,6.09,5.35,6.36a113.74,113.74,0,0,0,14.77,0c3.13-.27,5.35-3.23,5.35-6.36V17" transform="translate(-5.81 -3.13)"/>
      <g id="lines">
        <path class="cls-1" d="M31.57,38.4V17" transform="translate(-5.81 -3.13)"/>
        <path class="cls-1" d="M18.45,38.4V17" transform="translate(-5.81 -3.13)"/>
        <path class="cls-1" d="M25,39.41V16" transform="translate(-5.81 -3.13)"/>
      </g>
    </g>
    <g id="top">
      <path class="cls-1" d="M43,17c-1.16-2.61,1.45-5-7-6.41-2.87-.47-8.07-2.07-11-2.08s-8.31,1.61-11.24,2.08C6.26,11.83,8.24,14.58,7,17" transform="translate(-5.81 -3.13)"/>
      <path id="top-2" data-name="top" class="cls-2" d="M20.72,8.76v-5h8.66V9.09" transform="translate(-5.81 -3.13)"/>
    </g>
  </g>
</svg>
