<svg id="trash_icon" data-name="trash  icon" xmlns="http://www.w3.org/2000/svg" viewBox="0 0 40 40">
  <defs>
    <style>
      .cls-1 {
        fill: #dedede;
      }
    </style>
  </defs>
  <g id="trash__icon--g">
    <path id="trash__icon--body" class="cls-1" d="M27.24,14.23a68,68,0,0,0-14.41,0l-1.91.37v14a4.25,4.25,0,0,0,3.8,4.25,88.58,88.58,0,0,0,10.56,0,4.25,4.25,0,0,0,3.8-4.25v-14ZM16,28.66c0,.14-.21.24-.45.24s-.46-.1-.46-.24V16.32c0-.13.2-.24.46-.24s.45.11.45.24Zm4.47.56c0,.13-.2.24-.45.24s-.45-.11-.45-.24V15.77c0-.14.2-.25.45-.25s.45.11.45.25Zm4.48-.56c0,.14-.2.24-.46.24s-.45-.1-.45-.24V16.32c0-.13.21-.24.45-.24s.46.11.46.24Z"/>
    <g id="trash__icon--top">
      <path class="cls-1" d="M23.7,9.4c-.48-.05-1-.08-1.43-.11A1.5,1.5,0,0,0,20.8,8H19.26a1.52,1.52,0,0,0-1.47,1.24l-1.44.07a2.88,2.88,0,0,1,2.91-2.62H20.8A2.86,2.86,0,0,1,23.7,9.4Z"/>
      <path class="cls-1" d="M30,13.85l-.92-.11-2.9-.36A48.52,48.52,0,0,0,20,13a49.62,49.62,0,0,0-6.2.39l-2.91.36-.91.11a5.11,5.11,0,0,0,.2-1c.18-1.22.34-2.27,3.41-2.88a20.12,20.12,0,0,1,2.73-.32l1.43-.07c1.05,0,1.91,0,2.23,0,.61,0,1.42,0,2.29.08.47,0,.95,0,1.42.09.94.09,1.85.2,2.55.34,3.42.61,3.49,1.54,3.58,2.72A4.47,4.47,0,0,0,30,13.85Z"/>
    </g>
  </g>
</svg>
