<?xml version="1.0" encoding="utf-8"?>
<!-- Generator: Adobe Illustrator 25.2.1, SVG Export Plug-In . SVG Version: 6.00 Build 0)  -->
<svg version="1.1" id="trash__icon" xmlns="http://www.w3.org/2000/svg" xmlns:xlink="http://www.w3.org/1999/xlink" x="0px"
	 y="0px" viewBox="0 0 40 40" style="enable-background:new 0 0 40 40;" xml:space="preserve">
<style type="text/css">
	.st0{fill:#DEDEDE;}
</style>
<g id="trash_x5F__x5F_icon--g">
	<path id="trash_x5F__x5F_icon--body" class="st0" d="M27.2,14.2c-4-0.5-10.3-0.5-14.4,0l-1.9,0.4v14c0,2.1,1.6,4.1,3.8,4.3
		c3.5,0.2,7,0.2,10.6,0c2.2-0.2,3.8-2.2,3.8-4.3v-14L27.2,14.2z M16,28.7c0,0.1-0.2,0.2-0.5,0.2c-0.3,0-0.5-0.1-0.5-0.2V16.3
		c0-0.1,0.2-0.2,0.5-0.2c0.2,0,0.5,0.1,0.5,0.2V28.7z M20.5,29.2c0,0.1-0.2,0.2-0.5,0.2s-0.5-0.1-0.5-0.2V15.8
		c0-0.1,0.2-0.2,0.5-0.2s0.5,0.1,0.5,0.2V29.2z M24.9,28.7c0,0.1-0.2,0.2-0.5,0.2c-0.2,0-0.5-0.1-0.5-0.2V16.3
		c0-0.1,0.2-0.2,0.5-0.2c0.3,0,0.5,0.1,0.5,0.2V28.7z"/>
	<g id="trash_x5F__x5F_icon--top">
		<path class="st0" d="M23.7,9.4c-0.5,0-1-0.1-1.4-0.1C22.2,8.6,21.5,8,20.8,8h-1.5c-0.7,0-1.4,0.6-1.5,1.2c-0.5,0-1,0-1.4,0.1
			c0.1-1.5,1.4-2.6,2.9-2.6h1.5C22.4,6.7,23.6,7.9,23.7,9.4z"/>
		<path class="st0" d="M30,13.9l-0.9-0.1l-2.9-0.4c-2-0.3-4.1-0.4-6.2-0.4c-2.1,0-4.1,0.1-6.2,0.4l-2.9,0.4L10,13.9
			c0.1-0.3,0.2-0.7,0.2-1c0.2-1.2,0.3-2.3,3.4-2.9c0.8-0.2,1.8-0.3,2.7-0.3c0.5,0,1-0.1,1.4-0.1c1,0,1.9,0,2.2,0
			c0.6,0,1.4,0,2.3,0.1c0.5,0,1,0.1,1.4,0.1c0.9,0.1,1.9,0.2,2.5,0.3c3.4,0.6,3.5,1.5,3.6,2.7C29.9,13.1,29.9,13.5,30,13.9z"/>
	</g>
</g>
</svg>
