<?xml version="1.0" encoding="utf-8"?>
<!-- Generator: Adobe Illustrator 25.2.1, SVG Export Plug-In . SVG Version: 6.00 Build 0)  -->
<svg version="1.1" id="trash__icon" xmlns="http://www.w3.org/2000/svg" xmlns:xlink="http://www.w3.org/1999/xlink" x="0px"
	 y="0px" viewBox="0 0 38.4 43.1" style="enable-background:new 0 0 38.4 43.1;" xml:space="preserve">
<g>
	<path class="cls-1" d="M6.1,12v20.7c0,3,2.3,5.9,5.4,6.1c5,0.3,10,0.3,15,0c3.2-0.3,5.4-3.1,5.4-6.1V12"/>
	<path class="cls-1" d="M25.7,32.8V15.1"/>
	<path class="cls-1" d="M12.3,32.8V15.1"/>
	<path class="cls-1" d="M19,33.6V14.3"/>
	<path class="cls-1" d="M34,12c-1-2,1.2-3.9-5.8-4.9c-2.4-0.4-6.7-0.6-9.2-0.6S12.1,6.6,9.6,7C3.4,8,5,10.1,4,12l6-0.6
		c6-0.6,12.1-0.6,18,0L34,12z"/>
	<path id="top-2" class="st0" d="M14.6,6.4V6.1c0-1.7,1.5-3.1,3.3-3.1h2.3c1.8,0,3.3,1.4,3.3,3.1v0.3"/>
</g>
</svg>
